{
  "accessors": [
    {
      "bufferView": 2,
      "componentType": 5126,
      "count": 1694,
      "max": [
        1.1066700220108032,
        1.8812199831008911,
        5.968440055847168
      ],
      "min": [
        -1.0419399738311768,
        -1.6646499633789063,
        -0.0039900001138448715
      ],
      "type": "VEC3"
    },
    {
      "bufferView": 2,
      "byteOffset": 20328,
      "componentType": 5126,
      "count": 1694,
      "max": [
        1.0,
        1.0,
        0.9999257326126099
      ],
      "min": [
        -1.0,
        -1.0,
        -0.9993922710418701
      ],
      "type": "VEC3"
    },
    {
      "bufferView": 1,
      "componentType": 5126,
      "count": 1694,
      "max": [
        0.7570499777793884,
        0.9283999800682068
      ],
      "min": [
        0.5402899980545044,
        0.22279000282287598
      ],
      "type": "VEC2"
    },
    {
      "bufferView": 0,
      "componentType": 5125,
      "count": 2550,
      "type": "SCALAR"
    },
    {
      "bufferView": 2,
      "byteOffset": 40656,
      "componentType": 5126,
      "count": 216,
      "max": [
        -0.5691800117492676,
        0.6371999979019165,
        3.4283299446105957
      ],
      "min": [
        -1.664620041847229,
        -0.6585800051689148,
        2.6076700687408447
      ],
      "type": "VEC3"
    },
    {
      "bufferView": 2,
      "byteOffset": 43248,
      "componentType": 5126,
      "count": 216,
      "max": [
        0.9980506896972656,
        0.9996250867843628,
        1.0
      ],
      "min": [
        -0.9980506896972656,
        -0.9996250867843628,
        -1.0
      ],
      "type": "VEC3"
    },
    {
      "bufferView": 1,
      "byteOffset": 13552,
      "componentType": 5126,
      "count": 216,
      "max": [
        0.46094998717308044,
        0.9268100261688232
      ],
      "min": [
        0.040709998458623886,
        0.03596999868750572
      ],
      "type": "VEC2"
    },
    {
      "bufferView": 0,
      "byteOffset": 10200,
      "componentType": 5125,
      "count": 324,
      "type": "SCALAR"
    },
    {
      "bufferView": 2,
      "byteOffset": 45840,
      "componentType": 5126,
      "count": 216,
      "max": [
        0.8723599910736084,
        2.3656699657440186,
        4.795849800109863
      ],
      "min": [
        -1.074779987335205,
        0.38484999537467957,
        3.550189971923828
      ],
      "type": "VEC3"
    },
    {
      "bufferView": 2,
      "byteOffset": 48432,
      "componentType": 5126,
      "count": 216,
      "max": [
        0.9539421200752258,
        0.926102876663208,
        1.0
      ],
      "min": [
        -0.9539421200752258,
        -0.926102876663208,
        -1.0
      ],
      "type": "VEC3"
    },
    {
      "bufferView": 1,
      "byteOffset": 15280,
      "componentType": 5126,
      "count": 216,
      "max": [
        0.46094998717308044,
        0.9204699993133545
      ],
      "min": [
        0.040709998458623886,
        0.06137000024318695
      ],
      "type": "VEC2"
    },
    {
      "bufferView": 0,
      "byteOffset": 11496,
      "componentType": 5125,
      "count": 324,
      "type": "SCALAR"
    },
    {
      "bufferView": 2,
      "byteOffset": 51024,
      "componentType": 5126,
      "count": 216,
      "max": [
        1.9261900186538696,
        0.9155799746513367,
        4.346199989318848
      ],
      "min": [
        0.44892001152038574,
        -0.761929988861084,
        3.301300048828125
      ],
      "type": "VEC3"
    },
    {
      "bufferView": 2,
      "byteOffset": 53616,
      "componentType": 5126,
      "count": 216,
      "max": [
        0.9987351298332214,
        0.9901968240737915,
        1.0
      ],
      "min": [
        -0.9987351298332214,
        -0.9901968240737915,
        -1.0
      ],
      "type": "VEC3"
    },
    {
      "bufferView": 1,
      "byteOffset": 17008,
      "componentType": 5126,
      "count": 216,
      "max": [
        0.46094998717308044,
        0.9339100122451782
      ],
      "min": [
        0.040709998458623886,
        0.03522000089287758
      ],
      "type": "VEC2"
    },
    {
      "bufferView": 0,
      "byteOffset": 12792,
      "componentType": 5125,
      "count": 324,
      "type": "SCALAR"
    },
    {
      "bufferView": 2,
      "byteOffset": 56208,
      "componentType": 5126,
      "count": 216,
      "max": [
        1.1391600370407104,
        -0.5052700042724609,
        4.114389896392822
      ],
      "min": [
        -1.0587899684906006,
        -2.3553500175476074,
        2.7178399562835693
      ],
      "type": "VEC3"
    },
    {
      "bufferView": 2,
      "byteOffset": 58800,
      "componentType": 5126,
      "count": 216,
      "max": [
        0.9999254941940308,
        0.9969884753227234,
        1.0
      ],
      "min": [
        -0.9999254941940308,
        -0.9969884753227234,
        -1.0
      ],
      "type": "VEC3"
    },
    {
      "bufferView": 1,
      "byteOffset": 18736,
      "componentType": 5126,
      "count": 216,
      "max": [
        0.46094998717308044,
        0.9683899879455566
      ],
      "min": [
        0.040709998458623886,
        0.03249000012874603
      ],
      "type": "VEC2"
    },
    {
      "bufferView": 0,
      "byteOffset": 14088,
      "componentType": 5125,
      "count": 324,
      "type": "SCALAR"
    },
    {
      "bufferView": 2,
      "byteOffset": 61392,
      "componentType": 5126,
      "count": 216,
      "max": [
        1.7485899925231934,
        1.6518499851226807,
        7.031909942626953
      ],
      "min": [
        -1.3927199840545654,
        -1.69268000125885,
        4.953740119934082
      ],
      "type": "VEC3"
    },
    {
      "bufferView": 2,
      "byteOffset": 63984,
      "componentType": 5126,
      "count": 216,
      "max": [
        0.9807316064834595,
        0.9592496156692505,
        1.0
      ],
      "min": [
        -0.9807316064834595,
        -0.9592496156692505,
        -1.0
      ],
      "type": "VEC3"
    },
    {
      "bufferView": 1,
      "byteOffset": 20464,
      "componentType": 5126,
      "count": 216,
      "max": [
        0.46094998717308044,
        0.9459699988365173
      ],
      "min": [
        0.040709998458623886,
        0.03585999831557274
      ],
      "type": "VEC2"
    },
    {
      "bufferView": 0,
      "byteOffset": 15384,
      "componentType": 5125,
      "count": 324,
      "type": "SCALAR"
    }
  ],
  "asset": {
    "extras": {
      "author": "Anggo Ari Wibowo (https://sketchfab.com/anggoariwibowo)",
      "license": "CC-BY-4.0 (http://creativecommons.org/licenses/by/4.0/)",
      "source": "https://sketchfab.com/3d-models/just-tree-9781dd1e2bf049ed83ae599791ea4180",
      "title": "Just Tree"
    },
    "generator": "Sketchfab-12.67.0",
    "version": "2.0"
  },
  "bufferViews": [
    {
      "buffer": 0,
      "byteLength": 16680,
      "name": "floatBufferViews",
      "target": 34963
    },
    {
      "buffer": 0,
      "byteLength": 22192,
      "byteOffset": 16680,
      "byteStride": 8,
      "name": "floatBufferViews",
      "target": 34962
    },
    {
      "buffer": 0,
      "byteLength": 66576,
      "byteOffset": 38872,
      "byteStride": 12,
      "name": "floatBufferViews",
      "target": 34962
    }
  ],
  "buffers": [
    {
      "byteLength": 105448,
      "uri": "scene.bin"
    }
  ],
  "extensionsUsed": [
    "KHR_materials_unlit"
  ],
  "images": [
    {
      "uri": "textures/Material.001_baseColor.png"
    }
  ],
  "materials": [
    {
      "doubleSided": true,
      "extensions": {
        "KHR_materials_unlit": {}
      },
      "name": "Material.001",
      "pbrMetallicRoughness": {
        "baseColorTexture": {
          "index": 0
        },
        "metallicFactor": 0.0
      }
    },
    {
      "doubleSided": true,
      "extensions": {
        "KHR_materials_unlit": {}
      },
      "name": "Material",
      "pbrMetallicRoughness": {
        "baseColorTexture": {
          "index": 0
        },
        "metallicFactor": 0.0
      }
    }
  ],
  "meshes": [
    {
      "name": "Plane_0",
      "primitives": [
        {
          "attributes": {
            "NORMAL": 1,
            "POSITION": 0,
            "TEXCOORD_0": 2
          },
          "indices": 3,
          "material": 1,
          "mode": 4
        }
      ]
    },
    {
      "name": "Cube.003_0",
      "primitives": [
        {
          "attributes": {
            "NORMAL": 5,
            "POSITION": 4,
            "TEXCOORD_0": 6
          },
          "indices": 7,
          "material": 0,
          "mode": 4
        }
      ]
    },
    {
      "name": "Cube.000_0",
      "primitives": [
        {
          "attributes": {
            "NORMAL": 9,
            "POSITION": 8,
            "TEXCOORD_0": 10
          },
          "indices": 11,
          "material": 0,
          "mode": 4
        }
      ]
    },
    {
      "name": "Cube.001_0",
      "primitives": [
        {
          "attributes": {
            "NORMAL": 13,
            "POSITION": 12,
            "TEXCOORD_0": 14
          },
          "indices": 15,
          "material": 0,
          "mode": 4
        }
      ]
    },
    {
      "name": "Cube.002_0",
      "primitives": [
        {
          "attributes": {
            "NORMAL": 17,
            "POSITION": 16,
            "TEXCOORD_0": 18
          },
          "indices": 19,
          "material": 0,
          "mode": 4
        }
      ]
    },
    {
      "name": "Cube.004_0",
      "primitives": [
        {
          "attributes": {
            "NORMAL": 21,
            "POSITION": 20,
            "TEXCOORD_0": 22
          },
          "indices": 23,
          "material": 0,
          "mode": 4
        }
      ]
    }
  ],
  "nodes": [
    {
      "children": [
        1
      ],
      "matrix": [
        1.0,
        0.0,
        0.0,
        0.0,
        0.0,
        2.220446049250313e-16,
        -1.0,
        0.0,
        0.0,
        1.0,
        2.220446049250313e-16,
        0.0,
        0.0,
        0.0,
        0.0,
        1.0
      ],
      "name": "Sketchfab_model"
    },
    {
      "children": [
        2,
        4,
        6,
        8,
        10,
        12
      ],
      "name": "Root"
    },
    {
      "children": [
        3
      ],
      "name": "Plane"
    },
    {
      "mesh": 0,
      "name": "Plane_0"
    },
    {
      "children": [
        5
      ],
      "name": "Cube.003"
    },
    {
      "mesh": 1,
      "name": "Cube.003_0"
    },
    {
      "children": [
        7
      ],
      "name": "Cube.000"
    },
    {
      "mesh": 2,
      "name": "Cube.000_0"
    },
    {
      "children": [
        9
      ],
      "name": "Cube.001"
    },
    {
      "mesh": 3,
      "name": "Cube.001_0"
    },
    {
      "children": [
        11
      ],
      "name": "Cube.002"
    },
    {
      "mesh": 4,
      "name": "Cube.002_0"
    },
    {
      "children": [
        13
      ],
      "name": "Cube.004"
    },
    {
      "mesh": 5,
      "name": "Cube.004_0"
    }
  ],
  "samplers": [
    {
      "magFilter": 9729,
      "minFilter": 9987,
      "wrapS": 10497,
      "wrapT": 10497
    }
  ],
  "scene": 0,
  "scenes": [
    {
      "name": "Sketchfab_Scene",
      "nodes": [
        0
      ]
    }
  ],
  "textures": [
    {
      "sampler": 0,
      "source": 0
    }
  ]
}
